<svg width="546" height="76" viewBox="0 0 546 76" fill="none" xmlns="http://www.w3.org/2000/svg">
<path d="M0.09375 74V4.15625H28.0312C35.7188 4.15625 41.5 5.84375 45.375 9.21875C49.25 12.5625 51.1875 16.8438 51.1875 22.0625C51.1875 26.1562 49.9844 29.4844 47.5781 32.0469C45.2031 34.5781 42.2031 36.25 38.5781 37.0625V37.7656C41.2344 37.8906 43.7188 38.6406 46.0312 40.0156C48.375 41.3906 50.2656 43.3281 51.7031 45.8281C53.1719 48.2969 53.9062 51.25 53.9062 54.6875C53.9062 58.375 53 61.6875 51.1875 64.625C49.375 67.5312 46.6875 69.8281 43.125 71.5156C39.5625 73.1719 35.1562 74 29.9062 74H0.09375ZM25.7812 33.4062C28.7812 33.4062 31.2812 32.6094 33.2812 31.0156C35.2812 29.4219 36.2812 27.25 36.2812 24.5C36.2812 22 35.3906 19.9844 33.6094 18.4531C31.8281 16.8906 29.3125 16.1094 26.0625 16.1094H14.8125V33.4062H25.7812ZM26.8594 61.9531C30.9844 61.9531 33.9844 61.1562 35.8594 59.5625C37.7656 57.9688 38.7188 55.8594 38.7188 53.2344C38.7188 50.3594 37.6875 48 35.625 46.1562C33.5625 44.2812 30.7656 43.3438 27.2344 43.3438H14.8125V61.9531H26.8594ZM63.2812 74V21.5938H77.8125V74H63.2812ZM70.5469 14.8906C68.3906 14.8906 66.5312 14.1719 64.9688 12.7344C63.4375 11.2969 62.6719 9.5625 62.6719 7.53125C62.6719 5.5 63.4375 3.78125 64.9688 2.375C66.5312 0.9375 68.3906 0.21875 70.5469 0.21875C72.7031 0.21875 74.5469 0.9375 76.0781 2.375C77.6406 3.78125 78.4219 5.5 78.4219 7.53125C78.4219 9.5625 77.6406 11.2969 76.0781 12.7344C74.5469 14.1719 72.7031 14.8906 70.5469 14.8906ZM113.297 75.0312C107.922 75.0312 103.297 73.9375 99.4219 71.75C95.5469 69.5625 92.5625 66.4531 90.4688 62.4219C88.375 58.3594 87.3281 53.5625 87.3281 48.0312C87.3281 42.6562 88.3594 37.9375 90.4219 33.875C92.5156 29.8125 95.4531 26.6406 99.2344 24.3594C103.016 22.0781 107.469 20.9375 112.594 20.9375C117.219 20.9375 121.391 21.9219 125.109 23.8906C128.859 25.8594 131.828 28.8125 134.016 32.75C136.234 36.6875 137.344 41.625 137.344 47.5625V51.5H101.625C101.781 55.4688 102.938 58.5781 105.094 60.8281C107.25 63.0781 110.062 64.2031 113.531 64.2031C115.938 64.2031 118 63.6875 119.719 62.6562C121.469 61.625 122.719 60.125 123.469 58.1562L136.875 59.0469C135.844 63.8594 133.266 67.7344 129.141 70.6719C125.047 73.5781 119.766 75.0312 113.297 75.0312ZM101.719 42.5469H123.422C123.078 39.2344 122.016 36.6094 120.234 34.6719C118.453 32.7344 115.953 31.7656 112.734 31.7656C109.484 31.7656 106.906 32.7812 105 34.8125C103.125 36.8125 102.031 39.3906 101.719 42.5469ZM161.438 43.7188V74H146.906V21.5938H161.203V30.9219H161.719C162.906 27.8594 164.797 25.4375 167.391 23.6562C169.984 21.8438 173.219 20.9375 177.094 20.9375C182.562 20.9375 186.938 22.7031 190.219 26.2344C193.531 29.7344 195.188 34.5469 195.188 40.6719V74H180.656V43.25C180.656 40.0312 179.828 37.5156 178.172 35.7031C176.547 33.8906 174.281 32.9844 171.375 32.9844C168.438 32.9844 166.047 33.9375 164.203 35.8438C162.359 37.7188 161.438 40.3438 161.438 43.7188ZM255.609 21.5938L237.281 74H220.875L202.641 21.5938H218.016L229.031 59.1406H229.594L240.422 21.5938H255.609ZM286.922 75.0312C281.547 75.0312 276.922 73.9375 273.047 71.75C269.172 69.5625 266.188 66.4531 264.094 62.4219C262 58.3594 260.953 53.5625 260.953 48.0312C260.953 42.6562 261.984 37.9375 264.047 33.875C266.141 29.8125 269.078 26.6406 272.859 24.3594C276.641 22.0781 281.094 20.9375 286.219 20.9375C290.844 20.9375 295.016 21.9219 298.734 23.8906C302.484 25.8594 305.453 28.8125 307.641 32.75C309.859 36.6875 310.969 41.625 310.969 47.5625V51.5H275.25C275.406 55.4688 276.562 58.5781 278.719 60.8281C280.875 63.0781 283.688 64.2031 287.156 64.2031C289.562 64.2031 291.625 63.6875 293.344 62.6562C295.094 61.625 296.344 60.125 297.094 58.1562L310.5 59.0469C309.469 63.8594 306.891 67.7344 302.766 70.6719C298.672 73.5781 293.391 75.0312 286.922 75.0312ZM275.344 42.5469H297.047C296.703 39.2344 295.641 36.6094 293.859 34.6719C292.078 32.7344 289.578 31.7656 286.359 31.7656C283.109 31.7656 280.531 32.7812 278.625 34.8125C276.75 36.8125 275.656 39.3906 275.344 42.5469ZM335.062 43.7188V74H320.531V21.5938H334.828V30.9219H335.344C336.531 27.8594 338.422 25.4375 341.016 23.6562C343.609 21.8438 346.844 20.9375 350.719 20.9375C356.188 20.9375 360.562 22.7031 363.844 26.2344C367.156 29.7344 368.812 34.5469 368.812 40.6719V74H354.281V43.25C354.281 40.0312 353.453 37.5156 351.797 35.7031C350.172 33.8906 347.906 32.9844 345 32.9844C342.062 32.9844 339.672 33.9375 337.828 35.8438C335.984 37.7188 335.062 40.3438 335.062 43.7188ZM380.438 74V21.5938H394.969V74H380.438ZM387.703 14.8906C385.547 14.8906 383.688 14.1719 382.125 12.7344C380.594 11.2969 379.828 9.5625 379.828 7.53125C379.828 5.5 380.594 3.78125 382.125 2.375C383.688 0.9375 385.547 0.21875 387.703 0.21875C389.859 0.21875 391.703 0.9375 393.234 2.375C394.797 3.78125 395.578 5.5 395.578 7.53125C395.578 9.5625 394.797 11.2969 393.234 12.7344C391.703 14.1719 389.859 14.8906 387.703 14.8906ZM425.766 74.8438C421.766 74.8438 418.156 73.8125 414.938 71.75C411.719 69.6875 409.172 66.6562 407.297 62.6562C405.422 58.625 404.484 53.7031 404.484 47.8906C404.484 41.8906 405.453 36.8906 407.391 32.8906C409.328 28.8906 411.906 25.9062 415.125 23.9375C418.344 21.9375 421.859 20.9375 425.672 20.9375C428.609 20.9375 431.062 21.4375 433.031 22.4375C435 23.4062 436.594 24.625 437.812 26.0938C439.031 27.5625 439.953 29.0156 440.578 30.4531H441V4.15625H455.531V74H441.234V65.6094H440.578C439.922 67.0469 438.969 68.4844 437.719 69.9219C436.469 71.3281 434.859 72.5 432.891 73.4375C430.953 74.375 428.578 74.8438 425.766 74.8438ZM441.328 47.8438C441.328 43.1562 440.375 39.4219 438.469 36.6406C436.562 33.8594 433.844 32.4688 430.312 32.4688C426.719 32.4688 423.984 33.8906 422.109 36.7344C420.266 39.5781 419.344 43.2812 419.344 47.8438C419.344 52.375 420.281 56.0938 422.156 59C424.031 61.875 426.75 63.3125 430.312 63.3125C433.812 63.3125 436.516 61.8906 438.422 59.0469C440.359 56.2031 441.328 52.4688 441.328 47.8438ZM490.781 75.0312C485.5 75.0312 480.922 73.9062 477.047 71.6562C473.203 69.375 470.234 66.2188 468.141 62.1875C466.078 58.125 465.047 53.4062 465.047 48.0312C465.047 42.625 466.078 37.8906 468.141 33.8281C470.234 29.7656 473.203 26.6094 477.047 24.3594C480.922 22.0781 485.5 20.9375 490.781 20.9375C496.094 20.9375 500.672 22.0781 504.516 24.3594C508.391 26.6094 511.359 29.7656 513.422 33.8281C515.516 37.8906 516.562 42.625 516.562 48.0312C516.562 53.4062 515.516 58.125 513.422 62.1875C511.359 66.2188 508.391 69.375 504.516 71.6562C500.672 73.9062 496.094 75.0312 490.781 75.0312ZM479.812 47.9375C479.812 52.5 480.734 56.2656 482.578 59.2344C484.422 62.2031 487.172 63.6875 490.828 63.6875C494.453 63.6875 497.188 62.2031 499.031 59.2344C500.875 56.2656 501.797 52.5 501.797 47.9375C501.797 43.375 500.875 39.625 499.031 36.6875C497.188 33.75 494.453 32.2812 490.828 32.2812C487.172 32.2812 484.422 33.75 482.578 36.6875C480.734 39.625 479.812 43.375 479.812 47.9375ZM530.203 51.875L529.125 4.15625H544.688L543.656 51.875H530.203ZM528.469 66.8281C528.469 64.4219 529.25 62.4844 530.812 61.0156C532.406 59.5469 534.438 58.8125 536.906 58.8125C539.406 58.8125 541.438 59.5469 543 61.0156C544.594 62.4844 545.391 64.4219 545.391 66.8281C545.391 69.2344 544.594 71.1875 543 72.6875C541.438 74.1562 539.406 74.8906 536.906 74.8906C534.438 74.8906 532.406 74.1562 530.812 72.6875C529.25 71.1875 528.469 69.2344 528.469 66.8281Z" fill="white"/>
</svg>
