<svg width="145" height="21" viewBox="0 0 145 21" fill="none" xmlns="http://www.w3.org/2000/svg">
<path d="M10.2578 15.0264H12.3203C12.2129 16.0146 11.93 16.8991 11.4717 17.6797C11.0133 18.4603 10.3652 19.0798 9.52734 19.5381C8.68945 19.9893 7.64388 20.2148 6.39062 20.2148C5.47396 20.2148 4.63965 20.043 3.8877 19.6992C3.1429 19.3555 2.50195 18.8685 1.96484 18.2383C1.42773 17.6009 1.01237 16.8382 0.71875 15.9502C0.432292 15.055 0.289062 14.0596 0.289062 12.9639V11.4062C0.289062 10.3105 0.432292 9.31868 0.71875 8.43066C1.01237 7.53548 1.43132 6.76921 1.97559 6.13184C2.52702 5.49447 3.18945 5.00391 3.96289 4.66016C4.73633 4.31641 5.60645 4.14453 6.57324 4.14453C7.75488 4.14453 8.75391 4.36654 9.57031 4.81055C10.3867 5.25456 11.0205 5.87044 11.4717 6.6582C11.93 7.4388 12.2129 8.34473 12.3203 9.37598H10.2578C10.1576 8.64551 9.97135 8.01888 9.69922 7.49609C9.42708 6.96615 9.04036 6.55794 8.53906 6.27148C8.03776 5.98503 7.38249 5.8418 6.57324 5.8418C5.87858 5.8418 5.26628 5.97428 4.73633 6.23926C4.21354 6.50423 3.77311 6.88021 3.41504 7.36719C3.06413 7.85417 2.79915 8.43783 2.62012 9.11816C2.44108 9.7985 2.35156 10.554 2.35156 11.3848V12.9639C2.35156 13.7301 2.43034 14.4499 2.58789 15.123C2.7526 15.7962 2.99967 16.387 3.3291 16.8955C3.65853 17.404 4.07747 17.805 4.58594 18.0986C5.0944 18.3851 5.69596 18.5283 6.39062 18.5283C7.27148 18.5283 7.97331 18.3887 8.49609 18.1094C9.01888 17.8301 9.41276 17.429 9.67773 16.9062C9.94987 16.3835 10.1432 15.7568 10.2578 15.0264ZM27.6875 11.6855V12.6738C27.6875 13.8483 27.5407 14.901 27.2471 15.832C26.9535 16.763 26.5309 17.5544 25.9795 18.2061C25.4281 18.8577 24.7656 19.3555 23.9922 19.6992C23.2259 20.043 22.3665 20.2148 21.4141 20.2148C20.4902 20.2148 19.6416 20.043 18.8682 19.6992C18.1019 19.3555 17.4359 18.8577 16.8701 18.2061C16.3115 17.5544 15.8783 16.763 15.5703 15.832C15.2624 14.901 15.1084 13.8483 15.1084 12.6738V11.6855C15.1084 10.5111 15.2588 9.46191 15.5596 8.53809C15.8675 7.6071 16.3008 6.81576 16.8594 6.16406C17.418 5.50521 18.0804 5.00391 18.8467 4.66016C19.6201 4.31641 20.4688 4.14453 21.3926 4.14453C22.3451 4.14453 23.2044 4.31641 23.9707 4.66016C24.7441 5.00391 25.4066 5.50521 25.958 6.16406C26.5166 6.81576 26.9427 7.6071 27.2363 8.53809C27.5371 9.46191 27.6875 10.5111 27.6875 11.6855ZM25.6357 12.6738V11.6641C25.6357 10.7331 25.5391 9.90951 25.3457 9.19336C25.1595 8.47721 24.8838 7.87565 24.5186 7.38867C24.1533 6.90169 23.7057 6.53288 23.1758 6.28223C22.653 6.03158 22.0586 5.90625 21.3926 5.90625C20.748 5.90625 20.1644 6.03158 19.6416 6.28223C19.126 6.53288 18.682 6.90169 18.3096 7.38867C17.9443 7.87565 17.6615 8.47721 17.4609 9.19336C17.2604 9.90951 17.1602 10.7331 17.1602 11.6641V12.6738C17.1602 13.612 17.2604 14.4427 17.4609 15.166C17.6615 15.8822 17.9479 16.4873 18.3203 16.9814C18.6999 17.4684 19.1475 17.8372 19.6631 18.0879C20.1859 18.3385 20.7695 18.4639 21.4141 18.4639C22.0872 18.4639 22.6852 18.3385 23.208 18.0879C23.7308 17.8372 24.1712 17.4684 24.5293 16.9814C24.8945 16.4873 25.1702 15.8822 25.3564 15.166C25.5426 14.4427 25.6357 13.612 25.6357 12.6738ZM43.3232 4.35938V20H41.2393L33.3652 7.93652V20H31.292V4.35938H33.3652L41.2715 16.4551V4.35938H43.3232ZM52.9541 4.35938V20H50.9131V4.35938H52.9541ZM57.9814 4.35938V6.05664H45.8965V4.35938H57.9814ZM60.8018 4.35938H65.9795C67.154 4.35938 68.1458 4.53841 68.9551 4.89648C69.7715 5.25456 70.391 5.78451 70.8135 6.48633C71.2432 7.18099 71.458 8.03678 71.458 9.05371C71.458 9.76986 71.3112 10.4251 71.0176 11.0195C70.7311 11.6068 70.3158 12.1081 69.7715 12.5234C69.2344 12.9316 68.5898 13.236 67.8379 13.4365L67.2578 13.6621H62.3916L62.3701 11.9756H66.0439C66.7887 11.9756 67.4082 11.8467 67.9023 11.5889C68.3965 11.3239 68.7689 10.9694 69.0195 10.5254C69.2702 10.0814 69.3955 9.59082 69.3955 9.05371C69.3955 8.45215 69.2773 7.92578 69.041 7.47461C68.8047 7.02344 68.4323 6.67611 67.9238 6.43262C67.4225 6.18197 66.7744 6.05664 65.9795 6.05664H62.875V20H60.8018V4.35938ZM69.9434 20L66.1406 12.9102L68.2998 12.8994L72.1562 19.8711V20H69.9434ZM80.6484 5.74512L75.4707 20H73.3545L79.3164 4.35938H80.6807L80.6484 5.74512ZM84.9883 20L79.7998 5.74512L79.7676 4.35938H81.1318L87.1152 20H84.9883ZM84.7197 14.21V15.9072H75.9326V14.21H84.7197ZM98.0459 16.0469C98.0459 15.6816 97.9886 15.3594 97.874 15.0801C97.7666 14.7936 97.5732 14.5358 97.2939 14.3066C97.0218 14.0775 96.6423 13.859 96.1553 13.6514C95.6755 13.4437 95.0667 13.2324 94.3291 13.0176C93.5557 12.7884 92.8574 12.5342 92.2344 12.2549C91.6113 11.9684 91.0778 11.6426 90.6338 11.2773C90.1898 10.9121 89.8496 10.4932 89.6133 10.0205C89.377 9.54785 89.2588 9.00716 89.2588 8.39844C89.2588 7.78971 89.3841 7.22754 89.6348 6.71191C89.8854 6.19629 90.2435 5.7487 90.709 5.36914C91.1816 4.98242 91.7438 4.68164 92.3955 4.4668C93.0472 4.25195 93.7741 4.14453 94.5762 4.14453C95.7507 4.14453 96.7461 4.37012 97.5625 4.82129C98.3861 5.2653 99.0127 5.84896 99.4424 6.57227C99.8721 7.28841 100.087 8.05469 100.087 8.87109H98.0244C98.0244 8.28385 97.8991 7.76465 97.6484 7.31348C97.3978 6.85514 97.0182 6.49707 96.5098 6.23926C96.0013 5.97428 95.3568 5.8418 94.5762 5.8418C93.8385 5.8418 93.2298 5.9528 92.75 6.1748C92.2702 6.39681 91.9121 6.69759 91.6758 7.07715C91.4466 7.45671 91.332 7.88997 91.332 8.37695C91.332 8.70638 91.4001 9.00716 91.5361 9.2793C91.6794 9.54427 91.8978 9.79134 92.1914 10.0205C92.4922 10.2497 92.8717 10.4609 93.3301 10.6543C93.7956 10.8477 94.3506 11.0339 94.9951 11.2129C95.8831 11.4635 96.6494 11.7428 97.2939 12.0508C97.9385 12.3587 98.4684 12.7061 98.8838 13.0928C99.3063 13.4723 99.6178 13.9056 99.8184 14.3926C100.026 14.8724 100.13 15.4167 100.13 16.0254C100.13 16.6628 100.001 17.2393 99.7432 17.7549C99.4854 18.2705 99.1165 18.7109 98.6367 19.0762C98.1569 19.4414 97.5804 19.7243 96.9072 19.9248C96.2412 20.1182 95.4964 20.2148 94.6729 20.2148C93.9495 20.2148 93.237 20.1146 92.5352 19.9141C91.8405 19.7135 91.2067 19.4128 90.6338 19.0117C90.068 18.6107 89.6133 18.1165 89.2695 17.5293C88.9329 16.9349 88.7646 16.2474 88.7646 15.4668H90.8271C90.8271 16.0039 90.931 16.4658 91.1387 16.8525C91.3464 17.2321 91.6292 17.5472 91.9873 17.7979C92.3525 18.0485 92.7643 18.2347 93.2227 18.3564C93.6882 18.471 94.1715 18.5283 94.6729 18.5283C95.3962 18.5283 96.0085 18.4281 96.5098 18.2275C97.0111 18.027 97.3906 17.7406 97.6484 17.3682C97.9134 16.9958 98.0459 16.5553 98.0459 16.0469ZM113.209 18.3135V20H104.927V18.3135H113.209ZM105.346 4.35938V20H103.272V4.35938H105.346ZM112.113 11.084V12.7705H104.927V11.084H112.113ZM113.102 4.35938V6.05664H104.927V4.35938H113.102ZM128.308 4.35938V20H126.224L118.35 7.93652V20H116.276V4.35938H118.35L126.256 16.4551V4.35938H128.308ZM124.73 0.374023L126.073 0.492188C126.073 1.01497 125.969 1.47331 125.762 1.86719C125.554 2.26107 125.275 2.56543 124.924 2.78027C124.58 2.99512 124.19 3.10254 123.753 3.10254C123.388 3.10254 123.087 3.05241 122.851 2.95215C122.614 2.84473 122.403 2.72656 122.217 2.59766C122.031 2.46159 121.834 2.34342 121.626 2.24316C121.425 2.13574 121.175 2.08203 120.874 2.08203C120.573 2.08203 120.319 2.19661 120.111 2.42578C119.911 2.65495 119.811 2.93783 119.811 3.27441L118.468 3.20996C118.468 2.68717 118.568 2.22884 118.769 1.83496C118.976 1.43392 119.256 1.1224 119.606 0.900391C119.957 0.671224 120.348 0.556641 120.777 0.556641C121.085 0.556641 121.354 0.610352 121.583 0.717773C121.819 0.818034 122.041 0.936198 122.249 1.07227C122.457 1.20117 122.672 1.31934 122.894 1.42676C123.116 1.52702 123.37 1.57715 123.656 1.57715C123.957 1.57715 124.211 1.46257 124.419 1.2334C124.627 0.99707 124.73 0.710612 124.73 0.374023ZM138.465 5.74512L133.287 20H131.171L137.133 4.35938H138.497L138.465 5.74512ZM142.805 20L137.616 5.74512L137.584 4.35938H138.948L144.932 20H142.805ZM142.536 14.21V15.9072H133.749V14.21H142.536Z" fill="#404040"/>
</svg>
