<svg width="208" height="84" viewBox="0 0 208 84" fill="none" xmlns="http://www.w3.org/2000/svg">
<path d="M0.72 8.424C0.72 5.992 1.488 4.136 3.024 2.856C4.56 1.576 6.8 0.935995 9.744 0.935995V31.176H43.824V8.424C43.824 5.992 44.592 4.136 46.128 2.856C47.664 1.576 49.904 0.935995 52.848 0.935995V62.376C52.848 64.808 52.08 66.664 50.544 67.944C49.008 69.224 46.768 69.864 43.824 69.864V39.144H9.744V62.376C9.744 64.808 8.976 66.664 7.44 67.944C5.904 69.224 3.664 69.864 0.72 69.864V8.424ZM82.0538 69.864C78.1498 69.864 74.5978 69.128 71.3978 67.656C68.2618 66.184 65.7978 64.2 64.0058 61.704C62.2778 59.144 61.4138 56.296 61.4138 53.16V37.416C61.4138 34.216 62.2778 31.304 64.0058 28.68C65.7978 26.056 68.2618 23.976 71.3978 22.44C74.5338 20.904 78.0858 20.136 82.0538 20.136C86.0218 20.136 89.5738 20.904 92.7098 22.44C95.9098 23.976 98.3738 26.056 100.102 28.68C101.894 31.304 102.79 34.216 102.79 37.416V53.16C102.79 56.296 101.894 59.144 100.102 61.704C98.3098 64.2 95.8458 66.184 92.7098 67.656C89.5738 69.128 86.0218 69.864 82.0538 69.864ZM82.0538 62.664C85.8938 62.664 88.9338 61.768 91.1738 59.976C93.4778 58.12 94.6298 55.72 94.6298 52.776V37.704C94.6298 34.632 93.4778 32.136 91.1738 30.216C88.9338 28.296 85.8938 27.336 82.0538 27.336C78.2778 27.336 75.2378 28.296 72.9338 30.216C70.6298 32.136 69.4778 34.632 69.4778 37.704V52.776C69.4778 55.72 70.5978 58.12 72.8378 59.976C75.1418 61.768 78.2138 62.664 82.0538 62.664ZM127.796 69.864C123.124 69.864 119.636 68.584 117.332 66.024C115.028 63.4 113.876 59.976 113.876 55.752V7.08C113.876 4.968 114.548 3.432 115.892 2.472C117.3 1.448 119.412 0.935995 122.228 0.935995V55.464C122.228 57.96 122.74 59.752 123.764 60.84C124.788 61.928 126.484 62.472 128.852 62.472C131.22 62.472 133.396 61.896 135.38 60.744C136.212 61.704 136.628 62.824 136.628 64.104C136.628 65.64 135.828 66.984 134.228 68.136C132.628 69.288 130.484 69.864 127.796 69.864ZM160.187 69.864C154.683 69.864 150.235 68.392 146.843 65.448C143.515 62.504 141.851 58.632 141.851 53.832C141.851 48.968 143.611 45.064 147.131 42.12C150.651 39.112 155.291 37.608 161.051 37.608C167.195 37.608 172.251 39.784 176.219 44.136L176.603 43.752C175.899 42.984 175.099 42.184 174.203 41.352V37.32C174.203 34.056 173.179 31.528 171.131 29.736C169.083 27.944 166.171 27.048 162.395 27.048C155.675 27.048 150.875 29.704 147.995 35.016C146.971 34.504 146.107 33.832 145.403 33C144.763 32.104 144.443 31.208 144.443 30.312C144.443 28.584 145.307 26.952 147.035 25.416C148.763 23.816 151.035 22.536 153.851 21.576C156.731 20.616 159.739 20.136 162.875 20.136C168.955 20.136 173.723 21.64 177.179 24.648C180.699 27.656 182.459 31.816 182.459 37.128V63.432C182.459 65.672 181.819 67.304 180.539 68.328C179.259 69.352 177.243 69.864 174.491 69.864V65.352C175.835 63.944 176.571 63.112 176.699 62.856L176.315 62.472C172.155 67.4 166.779 69.864 160.187 69.864ZM161.627 63.24C165.595 63.24 168.699 62.408 170.939 60.744C173.243 59.08 174.395 56.776 174.395 53.832C174.395 50.888 173.275 48.552 171.035 46.824C168.795 45.096 165.723 44.232 161.819 44.232C158.171 44.232 155.291 45.096 153.179 46.824C151.131 48.488 150.107 50.824 150.107 53.832C150.107 56.84 151.099 59.176 153.083 60.84C155.131 62.44 157.979 63.24 161.627 63.24ZM194.383 82.44C196.687 80.328 198.415 78.152 199.567 75.912C200.719 73.672 201.295 71.496 201.295 69.384C200.655 69.704 199.919 69.864 199.087 69.864C197.295 69.864 195.823 69.288 194.671 68.136C193.583 66.92 193.039 65.384 193.039 63.528C193.039 61.48 193.679 59.816 194.959 58.536C196.303 57.256 197.967 56.616 199.951 56.616C202.063 56.616 203.759 57.32 205.039 58.728C206.383 60.072 207.055 61.768 207.055 63.816C207.055 68.168 206.383 71.784 205.039 74.664C203.695 77.544 201.743 80.072 199.183 82.248C198.543 82.76 197.647 83.016 196.495 83.016C195.599 83.016 194.895 82.824 194.383 82.44Z" fill="white"/>
</svg>
