<svg width="174" height="16" viewBox="0 0 174 16" fill="none" xmlns="http://www.w3.org/2000/svg">
<path d="M3.14844 6.6875H4.60156C4.59635 7.1875 4.54948 7.59375 4.46094 7.90625C4.3776 8.21354 4.23958 8.4974 4.04688 8.75781C3.85938 9.01823 3.60417 9.32292 3.28125 9.67188C3.0625 9.90625 2.85417 10.1328 2.65625 10.3516C2.45833 10.5703 2.29688 10.8099 2.17188 11.0703C2.04688 11.3307 1.98438 11.6406 1.98438 12C1.98438 12.3802 2.05208 12.7005 2.1875 12.9609C2.32292 13.2214 2.52083 13.4167 2.78125 13.5469C3.04167 13.6823 3.35938 13.75 3.73438 13.75C4.04167 13.75 4.32812 13.6927 4.59375 13.5781C4.85938 13.4635 5.07552 13.2865 5.24219 13.0469C5.41406 12.8125 5.5 12.5156 5.5 12.1562H6.94531C6.9401 12.7448 6.79427 13.2526 6.50781 13.6797C6.22656 14.112 5.84375 14.4427 5.35938 14.6719C4.88021 14.901 4.33854 15.0156 3.73438 15.0156C3.05729 15.0156 2.47917 14.8984 2 14.6641C1.52604 14.4297 1.16146 14.0911 0.90625 13.6484C0.65625 13.2057 0.53125 12.6719 0.53125 12.0469C0.53125 11.5729 0.625 11.1354 0.8125 10.7344C1.00521 10.3281 1.2474 9.95312 1.53906 9.60938C1.83073 9.26042 2.13281 8.9349 2.44531 8.63281C2.63281 8.45052 2.77604 8.26042 2.875 8.0625C2.97917 7.85938 3.04948 7.64323 3.08594 7.41406C3.1276 7.1849 3.14844 6.94271 3.14844 6.6875ZM4.66406 4.21094C4.66406 4.4401 4.59115 4.63542 4.44531 4.79688C4.29948 4.95833 4.08854 5.03906 3.8125 5.03906C3.53125 5.03906 3.31771 4.95833 3.17188 4.79688C3.02604 4.63542 2.95312 4.4401 2.95312 4.21094C2.95312 3.98177 3.02604 3.78906 3.17188 3.63281C3.31771 3.47135 3.53125 3.39062 3.8125 3.39062C4.08854 3.39062 4.29948 3.47135 4.44531 3.63281C4.59115 3.78906 4.66406 3.98177 4.66406 4.21094ZM17.2483 5.95312V6.67188C17.2483 7.52604 17.1415 8.29167 16.9279 8.96875C16.7144 9.64583 16.4071 10.2214 16.0061 10.6953C15.605 11.1693 15.1233 11.5312 14.5608 11.7812C14.0035 12.0312 13.3785 12.1562 12.6858 12.1562C12.0139 12.1562 11.3967 12.0312 10.8342 11.7812C10.2769 11.5312 9.79252 11.1693 9.38106 10.6953C8.97481 10.2214 8.65971 9.64583 8.43575 8.96875C8.21179 8.29167 8.09981 7.52604 8.09981 6.67188V5.95312C8.09981 5.09896 8.20919 4.33594 8.42794 3.66406C8.6519 2.98698 8.967 2.41146 9.37325 1.9375C9.7795 1.45833 10.2613 1.09375 10.8186 0.84375C11.3811 0.59375 11.9983 0.46875 12.6701 0.46875C13.3628 0.46875 13.9878 0.59375 14.5451 0.84375C15.1076 1.09375 15.5894 1.45833 15.9904 1.9375C16.3967 2.41146 16.7066 2.98698 16.9201 3.66406C17.1389 4.33594 17.2483 5.09896 17.2483 5.95312ZM15.7561 6.67188V5.9375C15.7561 5.26042 15.6858 4.66146 15.5451 4.14062C15.4097 3.61979 15.2092 3.18229 14.9436 2.82812C14.6779 2.47396 14.3524 2.20573 13.967 2.02344C13.5868 1.84115 13.1545 1.75 12.6701 1.75C12.2014 1.75 11.7769 1.84115 11.3967 2.02344C11.0217 2.20573 10.6988 2.47396 10.4279 2.82812C10.1623 3.18229 9.95658 3.61979 9.81075 4.14062C9.66492 4.66146 9.592 5.26042 9.592 5.9375V6.67188C9.592 7.35417 9.66492 7.95833 9.81075 8.48438C9.95658 9.00521 10.1649 9.44531 10.4358 9.80469C10.7118 10.1589 11.0373 10.4271 11.4123 10.6094C11.7925 10.7917 12.217 10.8828 12.6858 10.8828C13.1753 10.8828 13.6102 10.7917 13.9904 10.6094C14.3706 10.4271 14.691 10.1589 14.9514 9.80469C15.217 9.44531 15.4175 9.00521 15.5529 8.48438C15.6884 7.95833 15.7561 7.35417 15.7561 6.67188ZM20.4496 0V12H18.9965V0H20.4496ZM24.9323 10.6953L27.2448 3.54688H28.7213L25.6823 12H24.7135L24.9323 10.6953ZM23.0026 3.54688L25.3854 10.7344L25.5494 12H24.5807L21.5182 3.54688H23.0026ZM31.2743 3.54688V12H29.8211V3.54688H31.2743ZM29.7118 1.30469C29.7118 1.07031 29.7821 0.872396 29.9227 0.710938C30.0685 0.549479 30.2821 0.46875 30.5633 0.46875C30.8394 0.46875 31.0503 0.549479 31.1961 0.710938C31.3472 0.872396 31.4227 1.07031 31.4227 1.30469C31.4227 1.52865 31.3472 1.72135 31.1961 1.88281C31.0503 2.03906 30.8394 2.11719 30.5633 2.11719C30.2821 2.11719 30.0685 2.03906 29.9227 1.88281C29.7821 1.72135 29.7118 1.52865 29.7118 1.30469ZM38.5147 10.3594V0H39.9678V12H38.6397L38.5147 10.3594ZM32.8272 7.86719V7.70312C32.8272 7.05729 32.9053 6.47135 33.0616 5.94531C33.223 5.41406 33.4496 4.95833 33.7412 4.57812C34.0381 4.19792 34.3897 3.90625 34.7959 3.70312C35.2074 3.49479 35.6657 3.39062 36.1709 3.39062C36.7022 3.39062 37.1657 3.48438 37.5616 3.67188C37.9626 3.85417 38.3011 4.1224 38.5772 4.47656C38.8584 4.82552 39.0798 5.2474 39.2412 5.74219C39.4027 6.23698 39.5147 6.79688 39.5772 7.42188V8.14062C39.5199 8.76042 39.4079 9.31771 39.2412 9.8125C39.0798 10.3073 38.8584 10.7292 38.5772 11.0781C38.3011 11.4271 37.9626 11.6953 37.5616 11.8828C37.1605 12.0651 36.6918 12.1562 36.1553 12.1562C35.6605 12.1562 35.2074 12.0495 34.7959 11.8359C34.3897 11.6224 34.0381 11.3229 33.7412 10.9375C33.4496 10.5521 33.223 10.099 33.0616 9.57812C32.9053 9.05208 32.8272 8.48177 32.8272 7.86719ZM34.2803 7.70312V7.86719C34.2803 8.28906 34.322 8.6849 34.4053 9.05469C34.4939 9.42448 34.6293 9.75 34.8116 10.0312C34.9939 10.3125 35.2256 10.5339 35.5069 10.6953C35.7881 10.8516 36.1241 10.9297 36.5147 10.9297C36.9939 10.9297 37.3871 10.8281 37.6944 10.625C38.0069 10.4219 38.2569 10.1536 38.4444 9.82031C38.6319 9.48698 38.7777 9.125 38.8819 8.73438V6.85156C38.8194 6.5651 38.7282 6.28906 38.6084 6.02344C38.4939 5.7526 38.3428 5.51302 38.1553 5.30469C37.973 5.09115 37.7465 4.92188 37.4756 4.79688C37.21 4.67188 36.8949 4.60938 36.5303 4.60938C36.1345 4.60938 35.7933 4.69271 35.5069 4.85938C35.2256 5.02083 34.9939 5.24479 34.8116 5.53125C34.6293 5.8125 34.4939 6.14062 34.4053 6.51562C34.322 6.88542 34.2803 7.28125 34.2803 7.70312ZM46.7942 10.5547V6.20312C46.7942 5.86979 46.7265 5.58073 46.5911 5.33594C46.4609 5.08594 46.2629 4.89323 45.9973 4.75781C45.7317 4.6224 45.4036 4.55469 45.0129 4.55469C44.6484 4.55469 44.328 4.61719 44.052 4.74219C43.7812 4.86719 43.5676 5.03125 43.4114 5.23438C43.2603 5.4375 43.1848 5.65625 43.1848 5.89062H41.7395C41.7395 5.58854 41.8176 5.28906 41.9739 4.99219C42.1301 4.69531 42.3541 4.42708 42.6458 4.1875C42.9426 3.94271 43.2968 3.75 43.7083 3.60938C44.1249 3.46354 44.5885 3.39062 45.0989 3.39062C45.7135 3.39062 46.2551 3.49479 46.7239 3.70312C47.1978 3.91146 47.5676 4.22656 47.8333 4.64844C48.1041 5.0651 48.2395 5.58854 48.2395 6.21875V10.1562C48.2395 10.4375 48.2629 10.737 48.3098 11.0547C48.3619 11.3724 48.4374 11.6458 48.5364 11.875V12H47.0286C46.9556 11.8333 46.8984 11.612 46.8567 11.3359C46.815 11.0547 46.7942 10.7943 46.7942 10.5547ZM47.0442 6.875L47.0598 7.89062H45.5989C45.1874 7.89062 44.8202 7.92448 44.4973 7.99219C44.1744 8.05469 43.9036 8.15104 43.6848 8.28125C43.4661 8.41146 43.2994 8.57552 43.1848 8.77344C43.0702 8.96615 43.0129 9.19271 43.0129 9.45312C43.0129 9.71875 43.0728 9.96094 43.1926 10.1797C43.3124 10.3984 43.4921 10.5729 43.7317 10.7031C43.9765 10.8281 44.276 10.8906 44.6301 10.8906C45.0728 10.8906 45.4635 10.7969 45.802 10.6094C46.1405 10.4219 46.4088 10.1927 46.6067 9.92188C46.8098 9.65104 46.9192 9.38802 46.9348 9.13281L47.552 9.82812C47.5155 10.0469 47.4166 10.2891 47.2551 10.5547C47.0937 10.8203 46.8775 11.0755 46.6067 11.3203C46.3411 11.5599 46.0234 11.7604 45.6536 11.9219C45.289 12.0781 44.8775 12.1562 44.4192 12.1562C43.8463 12.1562 43.3437 12.0443 42.9114 11.8203C42.4843 11.5964 42.151 11.2969 41.9114 10.9219C41.677 10.5417 41.5598 10.1172 41.5598 9.64844C41.5598 9.19531 41.6484 8.79688 41.8254 8.45312C42.0025 8.10417 42.2577 7.8151 42.5911 7.58594C42.9244 7.35156 43.3254 7.17448 43.7942 7.05469C44.2629 6.9349 44.7864 6.875 45.3645 6.875H47.0442ZM55.0268 9.75781C55.0268 9.54948 54.9799 9.35677 54.8862 9.17969C54.7976 8.9974 54.6128 8.83333 54.3315 8.6875C54.0555 8.53646 53.6388 8.40625 53.0815 8.29688C52.6128 8.19792 52.1883 8.08073 51.8081 7.94531C51.4331 7.8099 51.1128 7.64583 50.8471 7.45312C50.5867 7.26042 50.3862 7.03385 50.2456 6.77344C50.1049 6.51302 50.0346 6.20833 50.0346 5.85938C50.0346 5.52604 50.1075 5.21094 50.2534 4.91406C50.4044 4.61719 50.6154 4.35417 50.8862 4.125C51.1622 3.89583 51.493 3.71615 51.8784 3.58594C52.2638 3.45573 52.6935 3.39062 53.1674 3.39062C53.8445 3.39062 54.4226 3.51042 54.9018 3.75C55.381 3.98958 55.7482 4.3099 56.0034 4.71094C56.2586 5.10677 56.3862 5.54688 56.3862 6.03125H54.9409C54.9409 5.79688 54.8706 5.57031 54.7299 5.35156C54.5945 5.1276 54.394 4.94271 54.1284 4.79688C53.868 4.65104 53.5476 4.57812 53.1674 4.57812C52.7664 4.57812 52.4409 4.64062 52.1909 4.76562C51.9461 4.88542 51.7664 5.03906 51.6518 5.22656C51.5424 5.41406 51.4878 5.61198 51.4878 5.82031C51.4878 5.97656 51.5138 6.11719 51.5659 6.24219C51.6232 6.36198 51.7221 6.47396 51.8628 6.57812C52.0034 6.67708 52.2013 6.77083 52.4565 6.85938C52.7117 6.94792 53.0372 7.03646 53.4331 7.125C54.1258 7.28125 54.6961 7.46875 55.144 7.6875C55.5919 7.90625 55.9253 8.17448 56.144 8.49219C56.3628 8.8099 56.4721 9.19531 56.4721 9.64844C56.4721 10.0182 56.394 10.3568 56.2378 10.6641C56.0867 10.9714 55.8654 11.237 55.5737 11.4609C55.2872 11.6797 54.9435 11.8516 54.5424 11.9766C54.1466 12.0964 53.7013 12.1562 53.2065 12.1562C52.4617 12.1562 51.8315 12.0234 51.3159 11.7578C50.8003 11.4922 50.4096 11.1484 50.144 10.7266C49.8784 10.3047 49.7456 9.85938 49.7456 9.39062H51.1987C51.2195 9.78646 51.3341 10.1016 51.5424 10.3359C51.7508 10.5651 52.006 10.7292 52.3081 10.8281C52.6101 10.9219 52.9096 10.9688 53.2065 10.9688C53.6023 10.9688 53.9331 10.9167 54.1987 10.8125C54.4695 10.7083 54.6753 10.5651 54.8159 10.3828C54.9565 10.2005 55.0268 9.99219 55.0268 9.75781ZM61.5016 3.54688V4.65625H56.9313V3.54688H61.5016ZM58.4782 1.49219H59.9235V9.90625C59.9235 10.1927 59.9678 10.4089 60.0563 10.5547C60.1449 10.7005 60.2594 10.7969 60.4001 10.8438C60.5407 10.8906 60.6917 10.9141 60.8532 10.9141C60.973 10.9141 61.098 10.9036 61.2282 10.8828C61.3636 10.8568 61.4652 10.8359 61.5329 10.8203L61.5407 12C61.4261 12.0365 61.2751 12.0703 61.0876 12.1016C60.9053 12.138 60.6839 12.1562 60.4235 12.1562C60.0693 12.1562 59.7438 12.0859 59.4469 11.9453C59.1501 11.8047 58.9131 11.5703 58.736 11.2422C58.5641 10.9089 58.4782 10.4609 58.4782 9.89844V1.49219ZM66.2967 12.1562C65.7082 12.1562 65.1744 12.0573 64.6952 11.8594C64.2212 11.6562 63.8124 11.3724 63.4686 11.0078C63.1301 10.6432 62.8697 10.2109 62.6874 9.71094C62.5051 9.21094 62.4139 8.66406 62.4139 8.07031V7.74219C62.4139 7.05469 62.5155 6.44271 62.7186 5.90625C62.9217 5.36458 63.1978 4.90625 63.5467 4.53125C63.8957 4.15625 64.2915 3.8724 64.7342 3.67969C65.177 3.48698 65.6353 3.39062 66.1092 3.39062C66.7134 3.39062 67.2342 3.49479 67.6717 3.70312C68.1145 3.91146 68.4764 4.20312 68.7577 4.57812C69.0389 4.94792 69.2473 5.38542 69.3827 5.89062C69.5181 6.39062 69.5858 6.9375 69.5858 7.53125V8.17969H63.2733V7H68.1405V6.89062C68.1197 6.51562 68.0415 6.15104 67.9061 5.79688C67.7759 5.44271 67.5676 5.15104 67.2811 4.92188C66.9947 4.69271 66.604 4.57812 66.1092 4.57812C65.7811 4.57812 65.479 4.64844 65.203 4.78906C64.927 4.92448 64.69 5.1276 64.4921 5.39844C64.2941 5.66927 64.1405 6 64.0311 6.39062C63.9217 6.78125 63.8671 7.23177 63.8671 7.74219V8.07031C63.8671 8.47135 63.9217 8.84896 64.0311 9.20312C64.1457 9.55208 64.3098 9.85938 64.5233 10.125C64.7421 10.3906 65.0051 10.599 65.3124 10.75C65.6249 10.901 65.979 10.9766 66.3749 10.9766C66.8853 10.9766 67.3176 10.8724 67.6717 10.6641C68.0259 10.4557 68.3358 10.1771 68.6014 9.82812L69.4764 10.5234C69.2941 10.7995 69.0624 11.0625 68.7811 11.3125C68.4999 11.5625 68.1535 11.7656 67.7421 11.9219C67.3358 12.0781 66.854 12.1562 66.2967 12.1562ZM77.9651 3.54688V4.65625H73.3948V3.54688H77.9651ZM74.9417 1.49219H76.387V9.90625C76.387 10.1927 76.4313 10.4089 76.5198 10.5547C76.6084 10.7005 76.7229 10.7969 76.8636 10.8438C77.0042 10.8906 77.1552 10.9141 77.3167 10.9141C77.4365 10.9141 77.5615 10.9036 77.6917 10.8828C77.8271 10.8568 77.9287 10.8359 77.9964 10.8203L78.0042 12C77.8896 12.0365 77.7386 12.0703 77.5511 12.1016C77.3688 12.138 77.1474 12.1562 76.887 12.1562C76.5328 12.1562 76.2073 12.0859 75.9104 11.9453C75.6136 11.8047 75.3766 11.5703 75.1995 11.2422C75.0276 10.9089 74.9417 10.4609 74.9417 9.89844V1.49219ZM84.4243 10.0469V3.54688H85.8774V12H84.4946L84.4243 10.0469ZM84.6978 8.26562L85.2993 8.25C85.2993 8.8125 85.2394 9.33333 85.1196 9.8125C85.005 10.2865 84.8175 10.6979 84.5571 11.0469C84.2967 11.3958 83.9556 11.6693 83.5337 11.8672C83.1118 12.0599 82.5988 12.1562 81.9946 12.1562C81.5832 12.1562 81.2056 12.0964 80.8618 11.9766C80.5233 11.8568 80.2316 11.6719 79.9868 11.4219C79.742 11.1719 79.5519 10.8464 79.4165 10.4453C79.2863 10.0443 79.2212 9.5625 79.2212 9V3.54688H80.6665V9.01562C80.6665 9.39583 80.7082 9.71094 80.7915 9.96094C80.88 10.2057 80.9972 10.401 81.1431 10.5469C81.2941 10.6875 81.4608 10.7865 81.6431 10.8438C81.8306 10.901 82.0233 10.9297 82.2212 10.9297C82.8358 10.9297 83.3228 10.8125 83.6821 10.5781C84.0415 10.3385 84.2993 10.0182 84.4556 9.61719C84.617 9.21094 84.6978 8.76042 84.6978 8.26562ZM94.6161 10.9688C94.9599 10.9688 95.2776 10.8984 95.5693 10.7578C95.8609 10.6172 96.1005 10.4245 96.288 10.1797C96.4755 9.92969 96.5823 9.64583 96.6083 9.32812H97.9833C97.9573 9.82812 97.788 10.2943 97.4755 10.7266C97.1682 11.1536 96.7646 11.5 96.2646 11.7656C95.7646 12.026 95.2151 12.1562 94.6161 12.1562C93.9807 12.1562 93.426 12.0443 92.9521 11.8203C92.4833 11.5964 92.0927 11.2891 91.7802 10.8984C91.4729 10.5078 91.2411 10.0599 91.0849 9.55469C90.9338 9.04427 90.8583 8.50521 90.8583 7.9375V7.60938C90.8583 7.04167 90.9338 6.50521 91.0849 6C91.2411 5.48958 91.4729 5.03906 91.7802 4.64844C92.0927 4.25781 92.4833 3.95052 92.9521 3.72656C93.426 3.5026 93.9807 3.39062 94.6161 3.39062C95.2776 3.39062 95.8557 3.52604 96.3505 3.79688C96.8453 4.0625 97.2333 4.42708 97.5146 4.89062C97.801 5.34896 97.9573 5.86979 97.9833 6.45312H96.6083C96.5823 6.10417 96.4833 5.78906 96.3114 5.50781C96.1448 5.22656 95.9156 5.0026 95.6239 4.83594C95.3375 4.66406 95.0015 4.57812 94.6161 4.57812C94.1734 4.57812 93.801 4.66667 93.4989 4.84375C93.2021 5.01562 92.9651 5.25 92.788 5.54688C92.6161 5.83854 92.4911 6.16406 92.413 6.52344C92.3401 6.8776 92.3036 7.23958 92.3036 7.60938V7.9375C92.3036 8.30729 92.3401 8.67188 92.413 9.03125C92.4859 9.39062 92.6083 9.71615 92.7802 10.0078C92.9573 10.2995 93.1943 10.5339 93.4911 10.7109C93.7932 10.8828 94.1682 10.9688 94.6161 10.9688ZM98.8175 7.86719V7.6875C98.8175 7.07812 98.906 6.51302 99.0831 5.99219C99.2602 5.46615 99.5154 5.01042 99.8487 4.625C100.182 4.23438 100.586 3.93229 101.06 3.71875C101.534 3.5 102.065 3.39062 102.653 3.39062C103.247 3.39062 103.781 3.5 104.255 3.71875C104.734 3.93229 105.14 4.23438 105.474 4.625C105.812 5.01042 106.07 5.46615 106.247 5.99219C106.424 6.51302 106.513 7.07812 106.513 7.6875V7.86719C106.513 8.47656 106.424 9.04167 106.247 9.5625C106.07 10.0833 105.812 10.5391 105.474 10.9297C105.14 11.3151 104.737 11.6172 104.263 11.8359C103.794 12.0495 103.263 12.1562 102.669 12.1562C102.075 12.1562 101.541 12.0495 101.067 11.8359C100.594 11.6172 100.187 11.3151 99.8487 10.9297C99.5154 10.5391 99.2602 10.0833 99.0831 9.5625C98.906 9.04167 98.8175 8.47656 98.8175 7.86719ZM100.263 7.6875V7.86719C100.263 8.28906 100.312 8.6875 100.411 9.0625C100.51 9.43229 100.659 9.76042 100.857 10.0469C101.06 10.3333 101.312 10.5599 101.614 10.7266C101.916 10.888 102.268 10.9688 102.669 10.9688C103.065 10.9688 103.411 10.888 103.708 10.7266C104.01 10.5599 104.26 10.3333 104.458 10.0469C104.656 9.76042 104.804 9.43229 104.903 9.0625C105.008 8.6875 105.06 8.28906 105.06 7.86719V7.6875C105.06 7.27083 105.008 6.8776 104.903 6.50781C104.804 6.13281 104.653 5.80208 104.45 5.51562C104.252 5.22396 104.002 4.99479 103.7 4.82812C103.403 4.66146 103.054 4.57812 102.653 4.57812C102.258 4.57812 101.909 4.66146 101.607 4.82812C101.31 4.99479 101.06 5.22396 100.857 5.51562C100.659 5.80208 100.51 6.13281 100.411 6.50781C100.312 6.8776 100.263 7.27083 100.263 7.6875ZM109.363 5.35156V12H107.917V3.54688H109.285L109.363 5.35156ZM109.019 7.45312L108.417 7.42969C108.423 6.85156 108.508 6.31771 108.675 5.82812C108.842 5.33333 109.076 4.90365 109.378 4.53906C109.68 4.17448 110.04 3.89323 110.456 3.69531C110.878 3.49219 111.344 3.39062 111.855 3.39062C112.271 3.39062 112.646 3.44792 112.98 3.5625C113.313 3.67188 113.597 3.84896 113.831 4.09375C114.071 4.33854 114.253 4.65625 114.378 5.04688C114.503 5.43229 114.566 5.90365 114.566 6.46094V12H113.113V6.44531C113.113 6.0026 113.048 5.64844 112.917 5.38281C112.787 5.11198 112.597 4.91667 112.347 4.79688C112.097 4.67188 111.79 4.60938 111.425 4.60938C111.066 4.60938 110.738 4.6849 110.441 4.83594C110.149 4.98698 109.896 5.19531 109.683 5.46094C109.475 5.72656 109.311 6.03125 109.191 6.375C109.076 6.71354 109.019 7.07292 109.019 7.45312ZM119.892 3.54688V4.65625H115.322V3.54688H119.892ZM116.869 1.49219H118.314V9.90625C118.314 10.1927 118.358 10.4089 118.447 10.5547C118.535 10.7005 118.65 10.7969 118.791 10.8438C118.931 10.8906 119.082 10.9141 119.244 10.9141C119.363 10.9141 119.488 10.9036 119.619 10.8828C119.754 10.8568 119.856 10.8359 119.923 10.8203L119.931 12C119.817 12.0365 119.666 12.0703 119.478 12.1016C119.296 12.138 119.074 12.1562 118.814 12.1562C118.46 12.1562 118.134 12.0859 117.837 11.9453C117.541 11.8047 117.304 11.5703 117.127 11.2422C116.955 10.9089 116.869 10.4609 116.869 9.89844V1.49219ZM122.625 4.875V12H121.179V3.54688H122.586L122.625 4.875ZM125.265 3.5L125.258 4.84375C125.138 4.81771 125.023 4.80208 124.914 4.79688C124.81 4.78646 124.69 4.78125 124.554 4.78125C124.221 4.78125 123.927 4.83333 123.672 4.9375C123.416 5.04167 123.2 5.1875 123.023 5.375C122.846 5.5625 122.705 5.78646 122.601 6.04688C122.502 6.30208 122.437 6.58333 122.406 6.89062L122 7.125C122 6.61458 122.049 6.13542 122.148 5.6875C122.252 5.23958 122.411 4.84375 122.625 4.5C122.838 4.15104 123.109 3.88021 123.437 3.6875C123.771 3.48958 124.166 3.39062 124.625 3.39062C124.729 3.39062 124.849 3.40365 124.984 3.42969C125.12 3.45052 125.213 3.47396 125.265 3.5ZM130.865 10.5547V6.20312C130.865 5.86979 130.797 5.58073 130.662 5.33594C130.532 5.08594 130.334 4.89323 130.068 4.75781C129.803 4.6224 129.475 4.55469 129.084 4.55469C128.719 4.55469 128.399 4.61719 128.123 4.74219C127.852 4.86719 127.639 5.03125 127.482 5.23438C127.331 5.4375 127.256 5.65625 127.256 5.89062H125.811C125.811 5.58854 125.889 5.28906 126.045 4.99219C126.201 4.69531 126.425 4.42708 126.717 4.1875C127.014 3.94271 127.368 3.75 127.779 3.60938C128.196 3.46354 128.659 3.39062 129.17 3.39062C129.784 3.39062 130.326 3.49479 130.795 3.70312C131.269 3.91146 131.639 4.22656 131.904 4.64844C132.175 5.0651 132.311 5.58854 132.311 6.21875V10.1562C132.311 10.4375 132.334 10.737 132.381 11.0547C132.433 11.3724 132.508 11.6458 132.607 11.875V12H131.1C131.027 11.8333 130.969 11.612 130.928 11.3359C130.886 11.0547 130.865 10.7943 130.865 10.5547ZM131.115 6.875L131.131 7.89062H129.67C129.258 7.89062 128.891 7.92448 128.568 7.99219C128.245 8.05469 127.975 8.15104 127.756 8.28125C127.537 8.41146 127.37 8.57552 127.256 8.77344C127.141 8.96615 127.084 9.19271 127.084 9.45312C127.084 9.71875 127.144 9.96094 127.264 10.1797C127.383 10.3984 127.563 10.5729 127.803 10.7031C128.047 10.8281 128.347 10.8906 128.701 10.8906C129.144 10.8906 129.534 10.7969 129.873 10.6094C130.212 10.4219 130.48 10.1927 130.678 9.92188C130.881 9.65104 130.99 9.38802 131.006 9.13281L131.623 9.82812C131.587 10.0469 131.488 10.2891 131.326 10.5547C131.165 10.8203 130.949 11.0755 130.678 11.3203C130.412 11.5599 130.094 11.7604 129.725 11.9219C129.36 12.0781 128.949 12.1562 128.49 12.1562C127.917 12.1562 127.415 12.0443 126.982 11.8203C126.555 11.5964 126.222 11.2969 125.982 10.9219C125.748 10.5417 125.631 10.1172 125.631 9.64844C125.631 9.19531 125.719 8.79688 125.896 8.45312C126.074 8.10417 126.329 7.8151 126.662 7.58594C126.995 7.35156 127.396 7.17448 127.865 7.05469C128.334 6.9349 128.857 6.875 129.436 6.875H131.115ZM139.098 9.75781C139.098 9.54948 139.051 9.35677 138.957 9.17969C138.869 8.9974 138.684 8.83333 138.402 8.6875C138.126 8.53646 137.71 8.40625 137.152 8.29688C136.684 8.19792 136.259 8.08073 135.879 7.94531C135.504 7.8099 135.184 7.64583 134.918 7.45312C134.658 7.26042 134.457 7.03385 134.317 6.77344C134.176 6.51302 134.106 6.20833 134.106 5.85938C134.106 5.52604 134.179 5.21094 134.324 4.91406C134.475 4.61719 134.686 4.35417 134.957 4.125C135.233 3.89583 135.564 3.71615 135.949 3.58594C136.335 3.45573 136.764 3.39062 137.238 3.39062C137.916 3.39062 138.494 3.51042 138.973 3.75C139.452 3.98958 139.819 4.3099 140.074 4.71094C140.33 5.10677 140.457 5.54688 140.457 6.03125H139.012C139.012 5.79688 138.942 5.57031 138.801 5.35156C138.666 5.1276 138.465 4.94271 138.199 4.79688C137.939 4.65104 137.619 4.57812 137.238 4.57812C136.837 4.57812 136.512 4.64062 136.262 4.76562C136.017 4.88542 135.837 5.03906 135.723 5.22656C135.613 5.41406 135.559 5.61198 135.559 5.82031C135.559 5.97656 135.585 6.11719 135.637 6.24219C135.694 6.36198 135.793 6.47396 135.934 6.57812C136.074 6.67708 136.272 6.77083 136.527 6.85938C136.783 6.94792 137.108 7.03646 137.504 7.125C138.197 7.28125 138.767 7.46875 139.215 7.6875C139.663 7.90625 139.996 8.17448 140.215 8.49219C140.434 8.8099 140.543 9.19531 140.543 9.64844C140.543 10.0182 140.465 10.3568 140.309 10.6641C140.158 10.9714 139.936 11.237 139.645 11.4609C139.358 11.6797 139.014 11.8516 138.613 11.9766C138.218 12.0964 137.772 12.1562 137.277 12.1562C136.533 12.1562 135.902 12.0234 135.387 11.7578C134.871 11.4922 134.481 11.1484 134.215 10.7266C133.949 10.3047 133.817 9.85938 133.817 9.39062H135.27C135.291 9.78646 135.405 10.1016 135.613 10.3359C135.822 10.5651 136.077 10.7292 136.379 10.8281C136.681 10.9219 136.981 10.9688 137.277 10.9688C137.673 10.9688 138.004 10.9167 138.27 10.8125C138.541 10.7083 138.746 10.5651 138.887 10.3828C139.027 10.2005 139.098 9.99219 139.098 9.75781ZM145.541 12.1562C144.953 12.1562 144.419 12.0573 143.94 11.8594C143.466 11.6562 143.057 11.3724 142.713 11.0078C142.375 10.6432 142.114 10.2109 141.932 9.71094C141.75 9.21094 141.659 8.66406 141.659 8.07031V7.74219C141.659 7.05469 141.76 6.44271 141.963 5.90625C142.166 5.36458 142.442 4.90625 142.791 4.53125C143.14 4.15625 143.536 3.8724 143.979 3.67969C144.422 3.48698 144.88 3.39062 145.354 3.39062C145.958 3.39062 146.479 3.49479 146.916 3.70312C147.359 3.91146 147.721 4.20312 148.002 4.57812C148.284 4.94792 148.492 5.38542 148.627 5.89062C148.763 6.39062 148.83 6.9375 148.83 7.53125V8.17969H142.518V7H147.385V6.89062C147.364 6.51562 147.286 6.15104 147.151 5.79688C147.021 5.44271 146.812 5.15104 146.526 4.92188C146.239 4.69271 145.849 4.57812 145.354 4.57812C145.026 4.57812 144.724 4.64844 144.448 4.78906C144.172 4.92448 143.935 5.1276 143.737 5.39844C143.539 5.66927 143.385 6 143.276 6.39062C143.166 6.78125 143.112 7.23177 143.112 7.74219V8.07031C143.112 8.47135 143.166 8.84896 143.276 9.20312C143.39 9.55208 143.554 9.85938 143.768 10.125C143.987 10.3906 144.25 10.599 144.557 10.75C144.87 10.901 145.224 10.9766 145.62 10.9766C146.13 10.9766 146.562 10.8724 146.916 10.6641C147.271 10.4557 147.58 10.1771 147.846 9.82812L148.721 10.5234C148.539 10.7995 148.307 11.0625 148.026 11.3125C147.745 11.5625 147.398 11.7656 146.987 11.9219C146.58 12.0781 146.099 12.1562 145.541 12.1562ZM151.555 5.35156V12H150.11V3.54688H151.477L151.555 5.35156ZM151.212 7.45312L150.61 7.42969C150.615 6.85156 150.701 6.31771 150.868 5.82812C151.034 5.33333 151.269 4.90365 151.571 4.53906C151.873 4.17448 152.232 3.89323 152.649 3.69531C153.071 3.49219 153.537 3.39062 154.047 3.39062C154.464 3.39062 154.839 3.44792 155.172 3.5625C155.506 3.67188 155.79 3.84896 156.024 4.09375C156.264 4.33854 156.446 4.65625 156.571 5.04688C156.696 5.43229 156.758 5.90365 156.758 6.46094V12H155.305V6.44531C155.305 6.0026 155.24 5.64844 155.11 5.38281C154.98 5.11198 154.79 4.91667 154.54 4.79688C154.29 4.67188 153.982 4.60938 153.618 4.60938C153.258 4.60938 152.93 4.6849 152.633 4.83594C152.342 4.98698 152.089 5.19531 151.876 5.46094C151.667 5.72656 151.503 6.03125 151.383 6.375C151.269 6.71354 151.212 7.07292 151.212 7.45312ZM155.282 0.15625L156.258 0.242188C156.258 0.622396 156.183 0.955729 156.032 1.24219C155.881 1.52865 155.678 1.75 155.422 1.90625C155.172 2.0625 154.889 2.14062 154.571 2.14062C154.305 2.14062 154.087 2.10417 153.915 2.03125C153.743 1.95312 153.589 1.86719 153.454 1.77344C153.318 1.67448 153.175 1.58854 153.024 1.51562C152.878 1.4375 152.696 1.39844 152.477 1.39844C152.258 1.39844 152.073 1.48177 151.922 1.64844C151.777 1.8151 151.704 2.02083 151.704 2.26562L150.727 2.21875C150.727 1.83854 150.8 1.50521 150.946 1.21875C151.097 0.927083 151.3 0.700521 151.555 0.539062C151.81 0.372396 152.094 0.289062 152.407 0.289062C152.631 0.289062 152.826 0.328125 152.993 0.40625C153.165 0.479167 153.326 0.565104 153.477 0.664062C153.628 0.757812 153.784 0.84375 153.946 0.921875C154.107 0.994792 154.292 1.03125 154.501 1.03125C154.719 1.03125 154.904 0.947917 155.055 0.78125C155.206 0.609375 155.282 0.401042 155.282 0.15625ZM163.53 10.5547V6.20312C163.53 5.86979 163.462 5.58073 163.327 5.33594C163.197 5.08594 162.999 4.89323 162.733 4.75781C162.468 4.6224 162.139 4.55469 161.749 4.55469C161.384 4.55469 161.064 4.61719 160.788 4.74219C160.517 4.86719 160.303 5.03125 160.147 5.23438C159.996 5.4375 159.921 5.65625 159.921 5.89062H158.475C158.475 5.58854 158.553 5.28906 158.71 4.99219C158.866 4.69531 159.09 4.42708 159.382 4.1875C159.678 3.94271 160.033 3.75 160.444 3.60938C160.861 3.46354 161.324 3.39062 161.835 3.39062C162.449 3.39062 162.991 3.49479 163.46 3.70312C163.934 3.91146 164.303 4.22656 164.569 4.64844C164.84 5.0651 164.975 5.58854 164.975 6.21875V10.1562C164.975 10.4375 164.999 10.737 165.046 11.0547C165.098 11.3724 165.173 11.6458 165.272 11.875V12H163.764C163.692 11.8333 163.634 11.612 163.593 11.3359C163.551 11.0547 163.53 10.7943 163.53 10.5547ZM163.78 6.875L163.796 7.89062H162.335C161.923 7.89062 161.556 7.92448 161.233 7.99219C160.91 8.05469 160.639 8.15104 160.421 8.28125C160.202 8.41146 160.035 8.57552 159.921 8.77344C159.806 8.96615 159.749 9.19271 159.749 9.45312C159.749 9.71875 159.809 9.96094 159.928 10.1797C160.048 10.3984 160.228 10.5729 160.468 10.7031C160.712 10.8281 161.012 10.8906 161.366 10.8906C161.809 10.8906 162.199 10.7969 162.538 10.6094C162.876 10.4219 163.145 10.1927 163.343 9.92188C163.546 9.65104 163.655 9.38802 163.671 9.13281L164.288 9.82812C164.251 10.0469 164.152 10.2891 163.991 10.5547C163.83 10.8203 163.613 11.0755 163.343 11.3203C163.077 11.5599 162.759 11.7604 162.389 11.9219C162.025 12.0781 161.613 12.1562 161.155 12.1562C160.582 12.1562 160.08 12.0443 159.647 11.8203C159.22 11.5964 158.887 11.2969 158.647 10.9219C158.413 10.5417 158.296 10.1172 158.296 9.64844C158.296 9.19531 158.384 8.79688 158.561 8.45312C158.738 8.10417 158.994 7.8151 159.327 7.58594C159.66 7.35156 160.061 7.17448 160.53 7.05469C160.999 6.9349 161.522 6.875 162.1 6.875H163.78ZM169.981 8.79688H168.528C168.534 8.29688 168.578 7.88802 168.661 7.57031C168.75 7.2474 168.893 6.95312 169.091 6.6875C169.289 6.42188 169.552 6.11979 169.88 5.78125C170.119 5.53646 170.338 5.30729 170.536 5.09375C170.739 4.875 170.903 4.64062 171.028 4.39062C171.153 4.13542 171.216 3.83073 171.216 3.47656C171.216 3.11719 171.151 2.80729 171.021 2.54688C170.896 2.28646 170.708 2.08594 170.458 1.94531C170.213 1.80469 169.909 1.73438 169.544 1.73438C169.242 1.73438 168.955 1.78906 168.685 1.89844C168.414 2.00781 168.195 2.17708 168.028 2.40625C167.862 2.63021 167.776 2.92448 167.771 3.28906H166.325C166.336 2.70052 166.481 2.19531 166.763 1.77344C167.049 1.35156 167.435 1.02865 167.919 0.804688C168.403 0.580729 168.945 0.46875 169.544 0.46875C170.205 0.46875 170.768 0.588542 171.231 0.828125C171.7 1.06771 172.057 1.41146 172.302 1.85938C172.547 2.30208 172.669 2.82812 172.669 3.4375C172.669 3.90625 172.573 4.33854 172.38 4.73438C172.192 5.125 171.95 5.49219 171.653 5.83594C171.356 6.17969 171.041 6.50781 170.708 6.82031C170.422 7.08594 170.229 7.38542 170.13 7.71875C170.031 8.05208 169.981 8.41146 169.981 8.79688ZM168.466 11.2734C168.466 11.0391 168.539 10.8411 168.685 10.6797C168.83 10.5182 169.041 10.4375 169.317 10.4375C169.599 10.4375 169.812 10.5182 169.958 10.6797C170.104 10.8411 170.177 11.0391 170.177 11.2734C170.177 11.4974 170.104 11.6901 169.958 11.8516C169.812 12.013 169.599 12.0938 169.317 12.0938C169.041 12.0938 168.83 12.013 168.685 11.8516C168.539 11.6901 168.466 11.4974 168.466 11.2734Z" fill="black"/>
<path d="M0 13.5625H173.302V14.3438H0V13.5625Z" fill="black"/>
</svg>
