<svg width="40" height="40" viewBox="0 0 40 40" fill="none" xmlns="http://www.w3.org/2000/svg">
<path d="M20.0001 28.3334C20.8841 28.3334 21.732 27.9822 22.3571 27.357C22.9822 26.7319 23.3334 25.8841 23.3334 25C23.3334 24.116 22.9822 23.2681 22.3571 22.643C21.732 22.0179 20.8841 21.6667 20.0001 21.6667C19.116 21.6667 18.2682 22.0179 17.6431 22.643C17.0179 23.2681 16.6667 24.116 16.6667 25C16.6667 25.8841 17.0179 26.7319 17.6431 27.357C18.2682 27.9822 19.116 28.3334 20.0001 28.3334ZM30.0001 13.3334C30.8841 13.3334 31.732 13.6845 32.3571 14.3097C32.9822 14.9348 33.3334 15.7826 33.3334 16.6667V33.3334C33.3334 34.2174 32.9822 35.0653 32.3571 35.6904C31.732 36.3155 30.8841 36.6667 30.0001 36.6667H10.0001C9.11603 36.6667 8.26818 36.3155 7.64306 35.6904C7.01794 35.0653 6.66675 34.2174 6.66675 33.3334V16.6667C6.66675 15.7826 7.01794 14.9348 7.64306 14.3097C8.26818 13.6845 9.11603 13.3334 10.0001 13.3334H11.6667V10C11.6667 7.78988 12.5447 5.67027 14.1075 4.10746C15.6703 2.54466 17.7899 1.66669 20.0001 1.66669C21.0944 1.66669 22.1781 1.88224 23.1891 2.30102C24.2002 2.71981 25.1188 3.33364 25.8926 4.10746C26.6665 4.88129 27.2803 5.79994 27.6991 6.81099C28.1179 7.82204 28.3334 8.90567 28.3334 10V13.3334H30.0001ZM20.0001 5.00002C18.674 5.00002 17.4022 5.5268 16.4645 6.46449C15.5269 7.40217 15.0001 8.67394 15.0001 10V13.3334H25.0001V10C25.0001 8.67394 24.4733 7.40217 23.5356 6.46449C22.5979 5.5268 21.3262 5.00002 20.0001 5.00002Z" fill="#6D6D6D"/>
</svg>
