<svg width="40" height="40" viewBox="0 0 40 40" fill="none" xmlns="http://www.w3.org/2000/svg">
<path d="M18.3333 16.6667V20H15V23.3334H11.6667V20H9.66667C9 22 7.16667 23.3334 5 23.3334C2.16667 23.3334 0 21.1667 0 18.3334C0 15.5 2.16667 13.3334 5 13.3334C7.16667 13.3334 9 14.6667 9.66667 16.6667H18.3333ZM5 16.6667C4 16.6667 3.33333 17.3334 3.33333 18.3334C3.33333 19.3334 4 20 5 20C6 20 6.66667 19.3334 6.66667 18.3334C6.66667 17.3334 6 16.6667 5 16.6667ZM26.6667 23.3334C31.1667 23.3334 40 25.5 40 30V33.3334H13.3333V30C13.3333 25.5 22.1667 23.3334 26.6667 23.3334ZM26.6667 20C23 20 20 17 20 13.3334C20 9.66669 23 6.66669 26.6667 6.66669C30.3333 6.66669 33.3333 9.66669 33.3333 13.3334C33.3333 17 30.3333 20 26.6667 20Z" fill="#6D6D6D"/>
</svg>
