<svg width="25" height="23" viewBox="0 0 25 23" fill="none" xmlns="http://www.w3.org/2000/svg">
<path d="M10.692 9.8514C10.2128 10.2891 9.9437 10.8826 9.94382 11.5015C9.94394 12.1203 10.2133 12.7138 10.6927 13.1513C11.172 13.5888 11.8221 13.8346 12.4999 13.8345C13.1777 13.8344 13.8277 13.5884 14.3069 13.1507M18.4813 16.9519C16.6889 17.9758 14.6143 18.5128 12.5 18.5C7.9 18.5 4.06667 16.1667 1 11.5C2.62533 9.0267 4.46533 7.20904 6.52 6.04704M10.1744 4.71003C10.9399 4.56855 11.719 4.4982 12.5 4.50003C17.1 4.50003 20.9333 6.83337 24 11.5C23.149 12.795 22.2379 13.9115 21.2681 14.8484M1 1L24 22" stroke="#636363" stroke-width="2" stroke-linecap="round" stroke-linejoin="round"/>
</svg>
